<svg width="132" height="32" viewBox="0 0 132 32" fill="none" xmlns="http://www.w3.org/2000/svg">
<g clip-path="url(#clip0_6_390)">
<path d="M117.6 16L113.917 11.9904C113.766 11.8372 113.682 11.6309 113.682 11.416C113.682 11.2011 113.766 10.9948 113.917 10.8416C113.991 10.7666 114.08 10.7071 114.177 10.6665C114.275 10.6259 114.379 10.605 114.485 10.605C114.59 10.605 114.695 10.6259 114.792 10.6665C114.89 10.7071 114.978 10.7666 115.053 10.8416L119.544 15.424C119.695 15.5768 119.78 15.7829 119.78 15.9976C119.78 16.2124 119.695 16.4185 119.544 16.5712L115.053 21.1536C114.979 21.229 114.89 21.2888 114.793 21.3297C114.695 21.3706 114.591 21.3916 114.485 21.3916C114.379 21.3916 114.274 21.3706 114.177 21.3297C114.079 21.2888 113.991 21.229 113.917 21.1536C113.766 21.0009 113.681 20.7948 113.681 20.58C113.681 20.3653 113.766 20.1592 113.917 20.0064L117.6 16ZM116 0.640015C118.017 0.640015 120.014 1.03731 121.878 1.80923C123.742 2.58114 125.435 3.71255 126.861 5.13885C128.287 6.56516 129.419 8.25844 130.191 10.122C130.963 11.9856 131.36 13.9829 131.36 16C131.36 24.4848 124.483 31.36 116 31.36C107.517 31.36 100.64 24.4848 100.64 16C100.64 11.9263 102.258 8.01941 105.139 5.13885C108.019 2.2583 111.926 0.640015 116 0.640015ZM116 29.3664C119.545 29.3664 122.945 27.9581 125.452 25.4513C127.959 22.9444 129.367 19.5444 129.367 15.9992C129.367 12.454 127.959 9.05401 125.452 6.54718C122.945 4.04034 119.545 2.63201 116 2.63201C112.455 2.63201 109.055 4.04034 106.548 6.54718C104.041 9.05401 102.633 12.454 102.633 15.9992C102.633 19.5444 104.041 22.9444 106.548 25.4513C109.055 27.9581 112.455 29.3664 116 29.3664Z" fill="#98A2B3"/>
</g>
<g clip-path="url(#clip1_6_390)">
<path d="M14.4 16L18.0832 11.9904C18.2339 11.8372 18.3183 11.6309 18.3183 11.416C18.3183 11.2011 18.2339 10.9948 18.0832 10.8416C18.0088 10.7666 17.9203 10.7071 17.8229 10.6665C17.7254 10.6259 17.6208 10.605 17.5152 10.605C17.4096 10.605 17.305 10.6259 17.2075 10.6665C17.1101 10.7071 17.0216 10.7666 16.9472 10.8416L12.456 15.424C12.305 15.5768 12.2204 15.7829 12.2204 15.9976C12.2204 16.2124 12.305 16.4185 12.456 16.5712L16.9472 21.1536C17.0214 21.229 17.1098 21.2888 17.2073 21.3297C17.3048 21.3706 17.4095 21.3916 17.5152 21.3916C17.6209 21.3916 17.7256 21.3706 17.8231 21.3297C17.9206 21.2888 18.009 21.229 18.0832 21.1536C18.2342 21.0009 18.3188 20.7948 18.3188 20.58C18.3188 20.3653 18.2342 20.1592 18.0832 20.0064L14.4 16ZM16 0.640015C13.9829 0.640015 11.9855 1.03731 10.122 1.80923C8.25842 2.58114 6.56515 3.71255 5.13884 5.13885C3.71253 6.56516 2.58112 8.25844 1.80921 10.122C1.0373 11.9856 0.639999 13.9829 0.639999 16C0.639999 24.4848 7.5168 31.36 16 31.36C24.4832 31.36 31.36 24.4848 31.36 16C31.36 11.9263 29.7417 8.01941 26.8612 5.13885C23.9806 2.2583 20.0737 0.640015 16 0.640015ZM16 29.3664C12.4548 29.3664 9.0548 27.9581 6.54796 25.4513C4.04113 22.9444 2.6328 19.5444 2.6328 15.9992C2.6328 12.454 4.04113 9.05401 6.54796 6.54718C9.0548 4.04034 12.4548 2.63201 16 2.63201C19.5452 2.63201 22.9452 4.04034 25.452 6.54718C27.9589 9.05401 29.3672 12.454 29.3672 15.9992C29.3672 19.5444 27.9589 22.9444 25.452 25.4513C22.9452 27.9581 19.5452 29.3664 16 29.3664Z" fill="#98A2B3"/>
</g>
<defs>
<clipPath id="clip0_6_390">
<rect width="32" height="32" fill="white" transform="translate(100)"/>
</clipPath>
<clipPath id="clip1_6_390">
<rect width="32" height="32" fill="white" transform="matrix(-1 0 0 1 32 0)"/>
</clipPath>
</defs>
</svg>
