<svg width="200" height="32" viewBox="0 0 200 32" fill="none" xmlns="http://www.w3.org/2000/svg">
<path d="M16 2.66669C8.63693 2.66669 2.66669 8.63693 2.66669 16C2.66669 23.3631 8.63693 29.3334 16 29.3334C23.3631 29.3334 29.3334 23.3631 29.3334 16C29.3334 8.63693 23.3631 2.66669 16 2.66669ZM22.4078 12.7173C22.4167 12.8572 22.4167 13.003 22.4167 13.1459C22.4167 17.5149 19.0893 22.5476 13.0089 22.5476C11.1339 22.5476 9.39585 22.003 7.93157 21.0655C8.19942 21.0953 8.45538 21.1072 8.72919 21.1072C10.2768 21.1072 11.6994 20.5834 12.8334 19.6964C11.381 19.6667 10.1607 18.7143 9.74407 17.4048C10.253 17.4792 10.7113 17.4792 11.2351 17.3453C10.4873 17.1933 9.81512 16.7872 9.33281 16.1958C8.85049 15.6044 8.58778 14.8643 8.58931 14.1012V14.0595C9.02681 14.3066 9.54169 14.4584 10.0804 14.4792C9.62753 14.1774 9.25615 13.7685 8.99916 13.2888C8.74218 12.8091 8.60753 12.2734 8.60716 11.7292C8.60716 11.1131 8.76788 10.5506 9.05657 10.0625C9.88664 11.0844 10.9224 11.9201 12.0966 12.5154C13.2708 13.1107 14.5572 13.4523 15.872 13.5179C15.4048 11.2709 17.0834 9.4524 19.1012 9.4524C20.0536 9.4524 20.9107 9.85121 21.5149 10.4941C22.2619 10.3542 22.9762 10.0744 23.6131 9.69942C23.3661 10.4643 22.8482 11.1101 22.1607 11.5179C22.8274 11.4464 23.4703 11.2619 24.0655 11.003C23.6161 11.6637 23.0536 12.25 22.4078 12.7173Z" fill="#FCFCFD"/>
<path fill-rule="evenodd" clip-rule="evenodd" d="M58.6667 16.0745C58.6667 22.7034 63.4811 28.2156 69.7778 29.3334V19.7034H66.4445V16H69.7778V13.0367C69.7778 9.70335 71.9256 7.85224 74.9634 7.85224C75.9256 7.85224 76.9634 8.00002 77.9256 8.1478V11.5556H76.2222C74.5922 11.5556 74.2222 12.37 74.2222 13.4078V16H77.7778L77.1856 19.7034H74.2222V29.3334C80.5189 28.2156 85.3334 22.7045 85.3334 16.0745C85.3334 8.70002 79.3334 2.66669 72 2.66669C64.6667 2.66669 58.6667 8.70002 58.6667 16.0745Z" fill="#FCFCFD"/>
<path fill-rule="evenodd" clip-rule="evenodd" d="M114.667 4.89457C114.667 4.3037 114.901 3.73703 115.319 3.31922C115.737 2.90141 116.304 2.66669 116.895 2.66669H139.103C139.396 2.66621 139.686 2.72349 139.957 2.83526C140.227 2.94702 140.473 3.11107 140.68 3.31801C140.887 3.52495 141.052 3.77072 141.164 4.04125C141.276 4.31178 141.334 4.60175 141.333 4.89457V27.1031C141.334 27.3959 141.276 27.686 141.164 27.9566C141.052 28.2273 140.888 28.4732 140.681 28.6804C140.474 28.8875 140.228 29.0518 139.958 29.1639C139.687 29.2759 139.397 29.3335 139.104 29.3334H116.895C116.602 29.3334 116.312 29.2757 116.042 29.1637C115.771 29.0516 115.526 28.8874 115.319 28.6804C115.112 28.4734 114.948 28.2276 114.836 27.9572C114.724 27.6868 114.667 27.3969 114.667 27.1043V4.89457ZM125.222 12.834H128.833V14.6473C129.354 13.6049 130.687 12.6667 132.691 12.6667C136.532 12.6667 137.442 14.7431 137.442 18.5527V25.6097H133.555V19.4206C133.555 17.2509 133.034 16.0267 131.71 16.0267C129.874 16.0267 129.11 17.3467 129.11 19.4206V25.6097H125.222V12.834ZM118.555 25.4437H122.444V12.6667H118.555V25.4424V25.4437ZM123 8.49942C123.007 8.83235 122.948 9.1634 122.826 9.47313C122.703 9.78286 122.52 10.065 122.288 10.3031C122.055 10.5411 121.777 10.7303 121.47 10.8594C121.163 10.9886 120.833 11.0551 120.5 11.0551C120.167 11.0551 119.837 10.9886 119.53 10.8594C119.223 10.7303 118.945 10.5411 118.712 10.3031C118.48 10.065 118.297 9.78286 118.174 9.47313C118.052 9.1634 117.993 8.83235 118 8.49942C118.014 7.84591 118.284 7.22401 118.751 6.76692C119.219 6.30982 119.846 6.05386 120.5 6.05386C121.154 6.05386 121.781 6.30982 122.249 6.76692C122.716 7.22401 122.986 7.84591 123 8.49942Z" fill="#FCFCFD"/>
<path d="M183.997 11.5536C181.548 11.5536 179.55 13.5516 179.55 16C179.55 18.4483 181.548 20.4463 183.997 20.4463C186.445 20.4463 188.443 18.4483 188.443 16C188.443 13.5516 186.445 11.5536 183.997 11.5536ZM197.332 16C197.332 14.1587 197.349 12.3341 197.246 10.4962C197.142 8.36146 196.655 6.46685 195.094 4.9058C193.53 3.34141 191.639 2.85775 189.504 2.75434C187.662 2.65094 185.838 2.66762 184 2.66762C182.159 2.66762 180.334 2.65094 178.496 2.75434C176.362 2.85775 174.467 3.34474 172.906 4.9058C171.341 6.47019 170.858 8.36146 170.754 10.4962C170.651 12.3375 170.668 14.1621 170.668 16C170.668 17.8379 170.651 19.6658 170.754 21.5037C170.858 23.6385 171.345 25.5331 172.906 27.0941C174.47 28.6585 176.362 29.1422 178.496 29.2456C180.338 29.349 182.162 29.3323 184 29.3323C185.841 29.3323 187.666 29.349 189.504 29.2456C191.639 29.1422 193.533 28.6552 195.094 27.0941C196.659 25.5297 197.142 23.6385 197.246 21.5037C197.352 19.6658 197.332 17.8412 197.332 16ZM183.997 22.8412C180.211 22.8412 177.155 19.7859 177.155 16C177.155 12.2141 180.211 9.15867 183.997 9.15867C187.783 9.15867 190.838 12.2141 190.838 16C190.838 19.7859 187.783 22.8412 183.997 22.8412ZM191.118 10.4762C190.234 10.4762 189.52 9.76241 189.52 8.87848C189.52 7.99455 190.234 7.28074 191.118 7.28074C192.002 7.28074 192.716 7.99455 192.716 8.87848C192.716 9.08837 192.675 9.29626 192.595 9.49022C192.515 9.68419 192.397 9.86043 192.249 10.0088C192.1 10.1573 191.924 10.2749 191.73 10.3551C191.536 10.4353 191.328 10.4765 191.118 10.4762Z" fill="#FCFCFD"/>
</svg>
